<?xml version="1.0" encoding="UTF-8"?>
<svg id="Capa_1" data-name="Capa 1" xmlns="http://www.w3.org/2000/svg" xmlns:xlink="http://www.w3.org/1999/xlink" viewBox="0 0 631.04 136.24">
  <defs>
    <style>
      .cls-1 {
        fill: url(#Degradado_sin_nombre_276-2);
      }

      .cls-2 {
        fill: #00f5ff;
      }

      .cls-3 {
        fill: url(#Degradado_sin_nombre_276);
      }
    </style>
    <linearGradient id="Degradado_sin_nombre_276" data-name="Degradado sin nombre 276" x1="18.94" y1="95.27" x2="67.51" y2="11.14" gradientUnits="userSpaceOnUse">
      <stop offset="0" stop-color="#00f5ff"/>
      <stop offset=".09" stop-color="#0af5ff"/>
      <stop offset=".23" stop-color="#26f6ff"/>
      <stop offset=".42" stop-color="#53f8ff"/>
      <stop offset=".65" stop-color="#91faff"/>
      <stop offset=".91" stop-color="#e0fdff"/>
      <stop offset="1" stop-color="#fff"/>
    </linearGradient>
    <linearGradient id="Degradado_sin_nombre_276-2" data-name="Degradado sin nombre 276" x1="59.8" y1="134.06" x2="127.18" y2="17.35" xlink:href="#Degradado_sin_nombre_276"/>
  </defs>
  <path class="cls-3" d="M25.58,32.03v64.56c0,2.41,1.96,4.37,4.37,4.37h0c1.36,0,2.64-.63,3.46-1.71L90.78,24.58h-57.75c-4.12,0-7.45,3.34-7.45,7.45Z"/>
  <path class="cls-1" d="M116.03,25.07h23.43c3.31,0,5.23,3.75,3.29,6.43l-61.73,86.08c-2.58,3.6-6.72,5.76-11.14,5.82l-27.89.37L116.03,25.07Z"/>
  <g>
    <path class="cls-2" d="M214.83,97.77l22.23-70.23h24.18l-34.06,94.94h-25.59l-34.59-94.94h25.59l22.23,70.23Z"/>
    <path class="cls-2" d="M288.43,81.71c1.41,16.23,12.35,24.18,24,24.18,7.59,0,15-2.65,19.94-10.94h25.06c-5.12,14.12-18.88,29.82-44.82,29.82-30.53,0-48.35-22.76-48.35-50.12s19.59-49.23,47.65-49.23,47.47,22.76,46.59,56.29h-70.05ZM288.78,64.95h45c-.53-16.06-11.82-21.71-22.06-21.71-9.18,0-21,5.65-22.94,21.71Z"/>
    <path class="cls-2" d="M428.55,51.01c-3.53-.53-6.53-.53-10.06-.53-12,0-19.94,4.41-19.94,22.23v49.76h-24.35V27.54h24v16.59c5.47-11.82,13.94-16.41,25.06-16.41,1.59,0,3.71.18,5.29.35v22.94Z"/>
    <path class="cls-2" d="M434.03,103.24l49.94-56.47h-47.12v-19.23h76.23v19.23l-49.94,56.47h51.35v19.23h-80.47v-19.23Z"/>
    <path class="cls-2" d="M558.45,124.77c-18.17,0-34.23-10.59-34.23-27.88,0-22.41,25.06-29.12,62.47-33.35v-1.59c0-14.65-7.94-19.76-17.82-19.76-9.35,0-17.12,4.77-17.65,15.35h-22.76c1.94-18.7,17.12-32.47,41.65-32.47,22.41,0,40.94,9.88,40.94,41.82,0,2.82-.35,15.7-.35,24.17,0,15,.88,23.47,2.82,31.41h-22.41c-.71-3-1.06-7.06-1.59-11.82-6.88,9.88-16.76,14.12-31.06,14.12ZM587.39,79.07c-27.35,2.82-38.12,6-38.12,16.59,0,6.88,5.29,12.53,16.41,12.53,15.35,0,21.71-8.12,21.71-22.06v-7.06Z"/>
  </g>
</svg>